<mxfile host="Electron" agent="Mozilla/5.0 (Windows NT 10.0; Win64; x64) AppleWebKit/537.36 (KHTML, like Gecko) draw.io/26.0.15 Chrome/132.0.6834.196 Electron/34.2.0 Safari/537.36" version="26.0.15">
  <diagram id="VeyEVVzGFHHniTcX9GDx" name="第 1 页">
    <mxGraphModel dx="2960" dy="1731" grid="1" gridSize="10" guides="1" tooltips="1" connect="0" arrows="1" fold="1" page="1" pageScale="1" pageWidth="3300" pageHeight="4681" math="0" shadow="0">
      <root>
        <mxCell id="0" />
        <mxCell id="1" parent="0" />
        <mxCell id="VndJTcKDumlg3SM-KgSq-52" value="" style="rounded=1;whiteSpace=wrap;html=1;strokeWidth=2;fillWeight=4;hachureGap=8;hachureAngle=45;fillColor=#fad9d5;sketch=1;strokeColor=#ae4132;" parent="1" vertex="1">
          <mxGeometry x="1570" y="360" width="450" height="900" as="geometry" />
        </mxCell>
        <mxCell id="VndJTcKDumlg3SM-KgSq-81" value="" style="rounded=1;whiteSpace=wrap;html=1;strokeWidth=2;fillWeight=4;hachureGap=8;hachureAngle=45;fillColor=#fff2cc;sketch=1;strokeColor=#d6b656;" parent="1" vertex="1">
          <mxGeometry x="2082" y="360" width="180" height="900" as="geometry" />
        </mxCell>
        <mxCell id="VndJTcKDumlg3SM-KgSq-51" value="" style="rounded=1;whiteSpace=wrap;html=1;strokeWidth=2;fillWeight=4;hachureGap=8;hachureAngle=45;fillColor=#e1d5e7;sketch=1;strokeColor=#9673a6;" parent="1" vertex="1">
          <mxGeometry x="1150" y="360" width="360" height="900" as="geometry" />
        </mxCell>
        <mxCell id="VndJTcKDumlg3SM-KgSq-43" value="" style="rounded=1;whiteSpace=wrap;html=1;strokeWidth=2;fillWeight=4;hachureGap=8;hachureAngle=45;fillColor=#ffe6cc;sketch=1;strokeColor=#d79b00;arcSize=6;" parent="1" vertex="1">
          <mxGeometry x="560" y="360" width="530" height="900" as="geometry" />
        </mxCell>
        <mxCell id="VndJTcKDumlg3SM-KgSq-42" value="" style="rounded=1;whiteSpace=wrap;html=1;strokeWidth=2;fillWeight=4;hachureGap=8;hachureAngle=45;fillColor=#d5e8d4;sketch=1;strokeColor=#82b366;" parent="1" vertex="1">
          <mxGeometry x="320" y="360" width="180" height="900" as="geometry" />
        </mxCell>
        <mxCell id="VndJTcKDumlg3SM-KgSq-41" value="" style="rounded=1;whiteSpace=wrap;html=1;strokeWidth=2;fillWeight=4;hachureGap=8;hachureAngle=45;fillColor=#dae8fc;sketch=1;strokeColor=#6c8ebf;" parent="1" vertex="1">
          <mxGeometry x="80" y="360" width="180" height="560" as="geometry" />
        </mxCell>
        <mxCell id="VndJTcKDumlg3SM-KgSq-5" value="Construct App" style="rounded=0;whiteSpace=wrap;html=1;" parent="1" vertex="1">
          <mxGeometry x="110" y="380" width="120" height="60" as="geometry" />
        </mxCell>
        <mxCell id="VndJTcKDumlg3SM-KgSq-13" style="edgeStyle=orthogonalEdgeStyle;rounded=0;orthogonalLoop=1;jettySize=auto;html=1;exitX=1;exitY=0.5;exitDx=0;exitDy=0;entryX=0;entryY=0.5;entryDx=0;entryDy=0;" parent="1" source="VndJTcKDumlg3SM-KgSq-6" target="VndJTcKDumlg3SM-KgSq-8" edge="1">
          <mxGeometry relative="1" as="geometry" />
        </mxCell>
        <mxCell id="VndJTcKDumlg3SM-KgSq-14" style="edgeStyle=orthogonalEdgeStyle;rounded=0;orthogonalLoop=1;jettySize=auto;html=1;exitX=1;exitY=0.5;exitDx=0;exitDy=0;entryX=0;entryY=0.5;entryDx=0;entryDy=0;" parent="1" source="VndJTcKDumlg3SM-KgSq-6" target="VndJTcKDumlg3SM-KgSq-9" edge="1">
          <mxGeometry relative="1" as="geometry" />
        </mxCell>
        <mxCell id="VndJTcKDumlg3SM-KgSq-15" style="edgeStyle=orthogonalEdgeStyle;rounded=0;orthogonalLoop=1;jettySize=auto;html=1;exitX=1;exitY=0.5;exitDx=0;exitDy=0;entryX=0;entryY=0.5;entryDx=0;entryDy=0;" parent="1" source="VndJTcKDumlg3SM-KgSq-6" target="VndJTcKDumlg3SM-KgSq-10" edge="1">
          <mxGeometry relative="1" as="geometry" />
        </mxCell>
        <mxCell id="VndJTcKDumlg3SM-KgSq-16" style="edgeStyle=orthogonalEdgeStyle;rounded=0;orthogonalLoop=1;jettySize=auto;html=1;exitX=1;exitY=0.5;exitDx=0;exitDy=0;entryX=0;entryY=0.5;entryDx=0;entryDy=0;" parent="1" source="VndJTcKDumlg3SM-KgSq-6" target="VndJTcKDumlg3SM-KgSq-11" edge="1">
          <mxGeometry relative="1" as="geometry" />
        </mxCell>
        <mxCell id="VndJTcKDumlg3SM-KgSq-6" value="Init App" style="rounded=0;whiteSpace=wrap;html=1;" parent="1" vertex="1">
          <mxGeometry x="110" y="470" width="120" height="60" as="geometry" />
        </mxCell>
        <mxCell id="VndJTcKDumlg3SM-KgSq-27" style="edgeStyle=orthogonalEdgeStyle;rounded=0;orthogonalLoop=1;jettySize=auto;html=1;exitX=1;exitY=0.5;exitDx=0;exitDy=0;entryX=0;entryY=0.5;entryDx=0;entryDy=0;" parent="1" source="VndJTcKDumlg3SM-KgSq-7" target="VndJTcKDumlg3SM-KgSq-21" edge="1">
          <mxGeometry relative="1" as="geometry" />
        </mxCell>
        <mxCell id="VndJTcKDumlg3SM-KgSq-28" style="edgeStyle=orthogonalEdgeStyle;rounded=0;orthogonalLoop=1;jettySize=auto;html=1;exitX=1;exitY=0.5;exitDx=0;exitDy=0;entryX=0;entryY=0.5;entryDx=0;entryDy=0;" parent="1" source="VndJTcKDumlg3SM-KgSq-7" target="VndJTcKDumlg3SM-KgSq-22" edge="1">
          <mxGeometry relative="1" as="geometry" />
        </mxCell>
        <mxCell id="VndJTcKDumlg3SM-KgSq-29" style="edgeStyle=orthogonalEdgeStyle;rounded=0;orthogonalLoop=1;jettySize=auto;html=1;exitX=1;exitY=0.5;exitDx=0;exitDy=0;entryX=0;entryY=0.5;entryDx=0;entryDy=0;" parent="1" source="VndJTcKDumlg3SM-KgSq-7" target="VndJTcKDumlg3SM-KgSq-23" edge="1">
          <mxGeometry relative="1" as="geometry" />
        </mxCell>
        <mxCell id="VndJTcKDumlg3SM-KgSq-30" style="edgeStyle=orthogonalEdgeStyle;rounded=0;orthogonalLoop=1;jettySize=auto;html=1;exitX=1;exitY=0.5;exitDx=0;exitDy=0;entryX=0;entryY=0.5;entryDx=0;entryDy=0;" parent="1" source="VndJTcKDumlg3SM-KgSq-7" target="VndJTcKDumlg3SM-KgSq-24" edge="1">
          <mxGeometry relative="1" as="geometry" />
        </mxCell>
        <mxCell id="VndJTcKDumlg3SM-KgSq-31" style="edgeStyle=orthogonalEdgeStyle;rounded=0;orthogonalLoop=1;jettySize=auto;html=1;exitX=1;exitY=0.5;exitDx=0;exitDy=0;entryX=0;entryY=0.5;entryDx=0;entryDy=0;" parent="1" source="VndJTcKDumlg3SM-KgSq-7" target="VndJTcKDumlg3SM-KgSq-25" edge="1">
          <mxGeometry relative="1" as="geometry" />
        </mxCell>
        <mxCell id="VndJTcKDumlg3SM-KgSq-7" value="Run App" style="rounded=0;whiteSpace=wrap;html=1;" parent="1" vertex="1">
          <mxGeometry x="110" y="820" width="120" height="60" as="geometry" />
        </mxCell>
        <mxCell id="VndJTcKDumlg3SM-KgSq-8" value="Construct SimCase&lt;div&gt;Get window size&lt;/div&gt;&lt;div&gt;Very first initialization&lt;/div&gt;" style="rounded=0;whiteSpace=wrap;html=1;" parent="1" vertex="1">
          <mxGeometry x="350" y="470" width="120" height="60" as="geometry" />
        </mxCell>
        <mxCell id="VndJTcKDumlg3SM-KgSq-9" value="Init Window" style="rounded=0;whiteSpace=wrap;html=1;" parent="1" vertex="1">
          <mxGeometry x="350" y="540" width="120" height="60" as="geometry" />
        </mxCell>
        <mxCell id="VndJTcKDumlg3SM-KgSq-10" value="Init Dx" style="rounded=0;whiteSpace=wrap;html=1;" parent="1" vertex="1">
          <mxGeometry x="350" y="610" width="120" height="60" as="geometry" />
        </mxCell>
        <mxCell id="VndJTcKDumlg3SM-KgSq-19" style="edgeStyle=orthogonalEdgeStyle;rounded=0;orthogonalLoop=1;jettySize=auto;html=1;exitX=1;exitY=0.5;exitDx=0;exitDy=0;entryX=0;entryY=0.5;entryDx=0;entryDy=0;" parent="1" source="VndJTcKDumlg3SM-KgSq-11" target="VndJTcKDumlg3SM-KgSq-17" edge="1">
          <mxGeometry relative="1" as="geometry" />
        </mxCell>
        <mxCell id="VndJTcKDumlg3SM-KgSq-11" value="Init SimCase" style="rounded=0;whiteSpace=wrap;html=1;" parent="1" vertex="1">
          <mxGeometry x="350" y="690" width="120" height="60" as="geometry" />
        </mxCell>
        <mxCell id="VndJTcKDumlg3SM-KgSq-72" style="edgeStyle=orthogonalEdgeStyle;rounded=0;orthogonalLoop=1;jettySize=auto;html=1;exitX=1;exitY=0.5;exitDx=0;exitDy=0;entryX=0;entryY=0.5;entryDx=0;entryDy=0;" parent="1" source="VndJTcKDumlg3SM-KgSq-17" target="VndJTcKDumlg3SM-KgSq-70" edge="1">
          <mxGeometry relative="1" as="geometry" />
        </mxCell>
        <mxCell id="VndJTcKDumlg3SM-KgSq-17" value="init" style="rounded=0;whiteSpace=wrap;html=1;" parent="1" vertex="1">
          <mxGeometry x="590" y="690" width="120" height="60" as="geometry" />
        </mxCell>
        <mxCell id="VndJTcKDumlg3SM-KgSq-21" value="Handle Msg" style="rounded=0;whiteSpace=wrap;html=1;" parent="1" vertex="1">
          <mxGeometry x="350" y="820" width="120" height="60" as="geometry" />
        </mxCell>
        <mxCell id="VndJTcKDumlg3SM-KgSq-37" style="edgeStyle=orthogonalEdgeStyle;rounded=0;orthogonalLoop=1;jettySize=auto;html=1;exitX=1;exitY=0.5;exitDx=0;exitDy=0;entryX=0;entryY=0.5;entryDx=0;entryDy=0;" parent="1" source="VndJTcKDumlg3SM-KgSq-22" target="VndJTcKDumlg3SM-KgSq-32" edge="1">
          <mxGeometry relative="1" as="geometry" />
        </mxCell>
        <mxCell id="VndJTcKDumlg3SM-KgSq-22" value="Update:&lt;div&gt;Logic and Data&lt;/div&gt;" style="rounded=0;whiteSpace=wrap;html=1;" parent="1" vertex="1">
          <mxGeometry x="350" y="905" width="120" height="60" as="geometry" />
        </mxCell>
        <mxCell id="VndJTcKDumlg3SM-KgSq-38" style="edgeStyle=orthogonalEdgeStyle;rounded=0;orthogonalLoop=1;jettySize=auto;html=1;exitX=1;exitY=0.5;exitDx=0;exitDy=0;entryX=0;entryY=0.5;entryDx=0;entryDy=0;" parent="1" source="VndJTcKDumlg3SM-KgSq-23" target="VndJTcKDumlg3SM-KgSq-33" edge="1">
          <mxGeometry relative="1" as="geometry" />
        </mxCell>
        <mxCell id="VndJTcKDumlg3SM-KgSq-23" value="Pre render" style="rounded=0;whiteSpace=wrap;html=1;" parent="1" vertex="1">
          <mxGeometry x="350" y="990" width="120" height="60" as="geometry" />
        </mxCell>
        <mxCell id="VndJTcKDumlg3SM-KgSq-39" style="edgeStyle=orthogonalEdgeStyle;rounded=0;orthogonalLoop=1;jettySize=auto;html=1;exitX=1;exitY=0.5;exitDx=0;exitDy=0;entryX=0;entryY=0.5;entryDx=0;entryDy=0;" parent="1" source="VndJTcKDumlg3SM-KgSq-24" target="VndJTcKDumlg3SM-KgSq-34" edge="1">
          <mxGeometry relative="1" as="geometry" />
        </mxCell>
        <mxCell id="VndJTcKDumlg3SM-KgSq-24" value="Render" style="rounded=0;whiteSpace=wrap;html=1;" parent="1" vertex="1">
          <mxGeometry x="350" y="1070" width="120" height="60" as="geometry" />
        </mxCell>
        <mxCell id="VndJTcKDumlg3SM-KgSq-40" style="edgeStyle=orthogonalEdgeStyle;rounded=0;orthogonalLoop=1;jettySize=auto;html=1;exitX=1;exitY=0.5;exitDx=0;exitDy=0;entryX=0;entryY=0.5;entryDx=0;entryDy=0;" parent="1" source="VndJTcKDumlg3SM-KgSq-25" target="VndJTcKDumlg3SM-KgSq-35" edge="1">
          <mxGeometry relative="1" as="geometry" />
        </mxCell>
        <mxCell id="VndJTcKDumlg3SM-KgSq-25" value="Post render" style="rounded=0;whiteSpace=wrap;html=1;" parent="1" vertex="1">
          <mxGeometry x="350" y="1150" width="120" height="60" as="geometry" />
        </mxCell>
        <mxCell id="VndJTcKDumlg3SM-KgSq-62" style="edgeStyle=orthogonalEdgeStyle;rounded=0;orthogonalLoop=1;jettySize=auto;html=1;exitX=1;exitY=0.5;exitDx=0;exitDy=0;" parent="1" source="VndJTcKDumlg3SM-KgSq-32" target="VndJTcKDumlg3SM-KgSq-60" edge="1">
          <mxGeometry relative="1" as="geometry" />
        </mxCell>
        <mxCell id="VndJTcKDumlg3SM-KgSq-32" value="update" style="rounded=0;whiteSpace=wrap;html=1;" parent="1" vertex="1">
          <mxGeometry x="590" y="905" width="120" height="60" as="geometry" />
        </mxCell>
        <mxCell id="VndJTcKDumlg3SM-KgSq-33" value="Pre render" style="rounded=0;whiteSpace=wrap;html=1;dashed=1;dashPattern=1 4;" parent="1" vertex="1">
          <mxGeometry x="590" y="990" width="120" height="60" as="geometry" />
        </mxCell>
        <mxCell id="VndJTcKDumlg3SM-KgSq-85" style="edgeStyle=orthogonalEdgeStyle;rounded=0;orthogonalLoop=1;jettySize=auto;html=1;exitX=1;exitY=0.5;exitDx=0;exitDy=0;entryX=0;entryY=0.5;entryDx=0;entryDy=0;" parent="1" source="VndJTcKDumlg3SM-KgSq-34" target="VndJTcKDumlg3SM-KgSq-83" edge="1">
          <mxGeometry relative="1" as="geometry" />
        </mxCell>
        <mxCell id="VndJTcKDumlg3SM-KgSq-34" value="Render" style="rounded=0;whiteSpace=wrap;html=1;dashed=1;dashPattern=1 4;" parent="1" vertex="1">
          <mxGeometry x="590" y="1070" width="120" height="60" as="geometry" />
        </mxCell>
        <mxCell id="VndJTcKDumlg3SM-KgSq-35" value="Post render" style="rounded=0;whiteSpace=wrap;html=1;dashed=1;dashPattern=1 4;" parent="1" vertex="1">
          <mxGeometry x="590" y="1150" width="120" height="60" as="geometry" />
        </mxCell>
        <mxCell id="VndJTcKDumlg3SM-KgSq-44" value="&lt;font style=&quot;font-size: 19px;&quot; face=&quot;Comic Sans MS&quot;&gt;&lt;b style=&quot;&quot;&gt;Main&lt;/b&gt;&lt;/font&gt;&lt;div&gt;&lt;font style=&quot;font-size: 19px;&quot; face=&quot;Comic Sans MS&quot;&gt;&lt;b style=&quot;&quot;&gt;&lt;br&gt;&lt;/b&gt;&lt;/font&gt;&lt;/div&gt;&lt;div&gt;&lt;font style=&quot;font-size: 19px;&quot; face=&quot;Comic Sans MS&quot;&gt;&lt;b style=&quot;&quot;&gt;The Entry&lt;/b&gt;&lt;/font&gt;&lt;/div&gt;" style="rounded=1;whiteSpace=wrap;html=1;strokeWidth=2;fillWeight=4;hachureGap=8;hachureAngle=45;fillColor=#dae8fc;sketch=1;strokeColor=#6c8ebf;" parent="1" vertex="1">
          <mxGeometry x="80" y="150" width="180" height="180" as="geometry" />
        </mxCell>
        <mxCell id="VndJTcKDumlg3SM-KgSq-45" value="&lt;font style=&quot;font-size: 19px;&quot; face=&quot;Comic Sans MS&quot;&gt;&lt;b style=&quot;&quot;&gt;SimApp&lt;/b&gt;&lt;/font&gt;&lt;div&gt;&lt;font style=&quot;font-size: 19px;&quot; face=&quot;Comic Sans MS&quot;&gt;&lt;b style=&quot;&quot;&gt;&lt;br&gt;&lt;/b&gt;&lt;/font&gt;&lt;/div&gt;&lt;div&gt;&lt;font style=&quot;font-size: 19px;&quot; face=&quot;Comic Sans MS&quot;&gt;&lt;b style=&quot;&quot;&gt;The Frame&lt;/b&gt;&lt;/font&gt;&lt;/div&gt;&lt;div&gt;&lt;font style=&quot;font-size: 19px;&quot; face=&quot;Comic Sans MS&quot;&gt;&lt;b style=&quot;&quot;&gt;holding&lt;/b&gt;&lt;/font&gt;&lt;/div&gt;&lt;div&gt;&lt;font style=&quot;font-size: 19px;&quot; face=&quot;Comic Sans MS&quot;&gt;&lt;b style=&quot;&quot;&gt;SimCase&lt;/b&gt;&lt;/font&gt;&lt;/div&gt;" style="rounded=1;whiteSpace=wrap;html=1;strokeWidth=2;fillWeight=4;hachureGap=8;hachureAngle=45;fillColor=#d5e8d4;sketch=1;strokeColor=#82b366;" parent="1" vertex="1">
          <mxGeometry x="320" y="150" width="180" height="180" as="geometry" />
        </mxCell>
        <mxCell id="VndJTcKDumlg3SM-KgSq-46" value="&lt;font style=&quot;font-size: 19px;&quot; face=&quot;Comic Sans MS&quot;&gt;&lt;b style=&quot;&quot;&gt;SimCase&lt;/b&gt;&lt;/font&gt;&lt;div&gt;&lt;font style=&quot;font-size: 19px;&quot; face=&quot;Comic Sans MS&quot;&gt;&lt;b style=&quot;&quot;&gt;&lt;br&gt;&lt;/b&gt;&lt;/font&gt;&lt;/div&gt;&lt;div&gt;&lt;font style=&quot;font-size: 19px;&quot; face=&quot;Comic Sans MS&quot;&gt;&lt;b style=&quot;&quot;&gt;The Logic and Rendering of Simulation&lt;/b&gt;&lt;/font&gt;&lt;/div&gt;&lt;div&gt;&lt;font style=&quot;font-size: 19px;&quot; face=&quot;Comic Sans MS&quot;&gt;&lt;b style=&quot;&quot;&gt;holding&amp;nbsp;&lt;/b&gt;&lt;/font&gt;&lt;/div&gt;&lt;div&gt;&lt;font face=&quot;Comic Sans MS&quot;&gt;&lt;span style=&quot;font-size: 19px;&quot;&gt;&lt;b&gt;SimEntity (Logic)&lt;/b&gt;&lt;/span&gt;&lt;/font&gt;&lt;/div&gt;&lt;div&gt;&lt;font face=&quot;Comic Sans MS&quot;&gt;&lt;span style=&quot;font-size: 19px;&quot;&gt;&lt;b&gt;RenderObj (Render)&lt;/b&gt;&lt;/span&gt;&lt;/font&gt;&lt;/div&gt;" style="rounded=1;whiteSpace=wrap;html=1;strokeWidth=2;fillWeight=4;hachureGap=8;hachureAngle=45;fillColor=#ffe6cc;sketch=1;strokeColor=#d79b00;arcSize=18;" parent="1" vertex="1">
          <mxGeometry x="561" y="150" width="529" height="180" as="geometry" />
        </mxCell>
        <mxCell id="VndJTcKDumlg3SM-KgSq-47" value="Construct Entity" style="rounded=0;whiteSpace=wrap;html=1;" parent="1" vertex="1">
          <mxGeometry x="937" y="380" width="120" height="60" as="geometry" />
        </mxCell>
        <mxCell id="VndJTcKDumlg3SM-KgSq-54" style="edgeStyle=orthogonalEdgeStyle;rounded=0;orthogonalLoop=1;jettySize=auto;html=1;exitX=1;exitY=0.5;exitDx=0;exitDy=0;entryX=0;entryY=0.5;entryDx=0;entryDy=0;" parent="1" source="VndJTcKDumlg3SM-KgSq-48" target="VndJTcKDumlg3SM-KgSq-49" edge="1">
          <mxGeometry relative="1" as="geometry" />
        </mxCell>
        <mxCell id="VndJTcKDumlg3SM-KgSq-48" value="Add Entity" style="rounded=0;whiteSpace=wrap;html=1;" parent="1" vertex="1">
          <mxGeometry x="937" y="460" width="120" height="60" as="geometry" />
        </mxCell>
        <mxCell id="VndJTcKDumlg3SM-KgSq-75" style="edgeStyle=orthogonalEdgeStyle;rounded=0;orthogonalLoop=1;jettySize=auto;html=1;exitX=1;exitY=0.5;exitDx=0;exitDy=0;entryX=0;entryY=0.5;entryDx=0;entryDy=0;" parent="1" source="VndJTcKDumlg3SM-KgSq-49" target="VndJTcKDumlg3SM-KgSq-73" edge="1">
          <mxGeometry relative="1" as="geometry" />
        </mxCell>
        <mxCell id="VndJTcKDumlg3SM-KgSq-49" value="init" style="rounded=0;whiteSpace=wrap;html=1;" parent="1" vertex="1">
          <mxGeometry x="1180" y="460" width="120" height="60" as="geometry" />
        </mxCell>
        <mxCell id="VndJTcKDumlg3SM-KgSq-50" value="construct&lt;div&gt;load model async&lt;/div&gt;" style="rounded=0;whiteSpace=wrap;html=1;" parent="1" vertex="1">
          <mxGeometry x="1630" y="460" width="120" height="60" as="geometry" />
        </mxCell>
        <mxCell id="VndJTcKDumlg3SM-KgSq-56" value="&lt;font style=&quot;font-size: 19px;&quot; face=&quot;Comic Sans MS&quot;&gt;&lt;b style=&quot;&quot;&gt;Entity&lt;/b&gt;&lt;/font&gt;&lt;div&gt;&lt;font style=&quot;font-size: 19px;&quot; face=&quot;Comic Sans MS&quot;&gt;&lt;b style=&quot;&quot;&gt;&lt;br&gt;&lt;/b&gt;&lt;/font&gt;&lt;/div&gt;&lt;div&gt;&lt;font style=&quot;font-size: 19px;&quot; face=&quot;Comic Sans MS&quot;&gt;&lt;b style=&quot;&quot;&gt;Sim&lt;/b&gt;&lt;/font&gt;&lt;b style=&quot;background-color: transparent; color: light-dark(rgb(0, 0, 0), rgb(255, 255, 255)); font-size: 19px; font-family: &amp;quot;Comic Sans MS&amp;quot;;&quot;&gt;&amp;nbsp;primitive&lt;/b&gt;&lt;/div&gt;&lt;div&gt;&lt;font style=&quot;font-size: 19px;&quot; face=&quot;Comic Sans MS&quot;&gt;&lt;b style=&quot;&quot;&gt;holding&lt;/b&gt;&lt;/font&gt;&lt;/div&gt;&lt;div&gt;&lt;font face=&quot;Comic Sans MS&quot;&gt;&lt;span style=&quot;font-size: 19px;&quot;&gt;&lt;b&gt;Sim property&lt;/b&gt;&lt;/span&gt;&lt;/font&gt;&lt;/div&gt;&lt;div&gt;&lt;font face=&quot;Comic Sans MS&quot;&gt;&lt;span style=&quot;font-size: 19px;&quot;&gt;&lt;b&gt;Model&lt;/b&gt;&lt;/span&gt;&lt;/font&gt;&lt;/div&gt;" style="rounded=1;whiteSpace=wrap;html=1;strokeWidth=2;fillWeight=4;hachureGap=8;hachureAngle=45;fillColor=#e1d5e7;sketch=1;strokeColor=#9673a6;" parent="1" vertex="1">
          <mxGeometry x="1150" y="150" width="360" height="180" as="geometry" />
        </mxCell>
        <mxCell id="VndJTcKDumlg3SM-KgSq-57" value="&lt;font face=&quot;Comic Sans MS&quot;&gt;&lt;span style=&quot;font-size: 19px;&quot;&gt;&lt;b&gt;Model&lt;/b&gt;&lt;/span&gt;&lt;/font&gt;&lt;br&gt;&lt;div&gt;&lt;font style=&quot;font-size: 19px;&quot; face=&quot;Comic Sans MS&quot;&gt;&lt;b style=&quot;&quot;&gt;&lt;br&gt;&lt;/b&gt;&lt;/font&gt;&lt;/div&gt;&lt;div&gt;&lt;b style=&quot;background-color: transparent; color: light-dark(rgb(0, 0, 0), rgb(255, 255, 255)); font-size: 19px; font-family: &amp;quot;Comic Sans MS&amp;quot;;&quot;&gt;Render entity&lt;/b&gt;&lt;/div&gt;&lt;div&gt;&lt;font style=&quot;font-size: 19px;&quot; face=&quot;Comic Sans MS&quot;&gt;&lt;b style=&quot;&quot;&gt;holding&lt;/b&gt;&lt;/font&gt;&lt;/div&gt;&lt;div&gt;&lt;font face=&quot;Comic Sans MS&quot;&gt;&lt;span style=&quot;font-size: 19px;&quot;&gt;&lt;b&gt;Meshes&lt;/b&gt;&lt;/span&gt;&lt;/font&gt;&lt;/div&gt;&lt;div&gt;&lt;font face=&quot;Comic Sans MS&quot;&gt;&lt;span style=&quot;font-size: 19px;&quot;&gt;&lt;b&gt;Tranformation&lt;/b&gt;&lt;/span&gt;&lt;/font&gt;&lt;/div&gt;" style="rounded=1;whiteSpace=wrap;html=1;strokeWidth=2;fillWeight=4;hachureGap=8;hachureAngle=45;fillColor=#fad9d5;sketch=1;strokeColor=#ae4132;" parent="1" vertex="1">
          <mxGeometry x="1570" y="150" width="450" height="180" as="geometry" />
        </mxCell>
        <mxCell id="VndJTcKDumlg3SM-KgSq-64" style="edgeStyle=orthogonalEdgeStyle;rounded=0;orthogonalLoop=1;jettySize=auto;html=1;exitX=1;exitY=0.5;exitDx=0;exitDy=0;entryX=0;entryY=0.5;entryDx=0;entryDy=0;" parent="1" source="VndJTcKDumlg3SM-KgSq-58" target="VndJTcKDumlg3SM-KgSq-59" edge="1">
          <mxGeometry relative="1" as="geometry" />
        </mxCell>
        <mxCell id="VndJTcKDumlg3SM-KgSq-58" value="updateEntities" style="rounded=0;whiteSpace=wrap;html=1;" parent="1" vertex="1">
          <mxGeometry x="937" y="905" width="120" height="60" as="geometry" />
        </mxCell>
        <mxCell id="VndJTcKDumlg3SM-KgSq-68" style="edgeStyle=orthogonalEdgeStyle;rounded=0;orthogonalLoop=1;jettySize=auto;html=1;exitX=1;exitY=0.5;exitDx=0;exitDy=0;" parent="1" source="VndJTcKDumlg3SM-KgSq-59" target="VndJTcKDumlg3SM-KgSq-65" edge="1">
          <mxGeometry relative="1" as="geometry" />
        </mxCell>
        <mxCell id="VndJTcKDumlg3SM-KgSq-69" style="edgeStyle=orthogonalEdgeStyle;rounded=0;orthogonalLoop=1;jettySize=auto;html=1;exitX=1;exitY=0.5;exitDx=0;exitDy=0;entryX=0;entryY=0.5;entryDx=0;entryDy=0;" parent="1" source="VndJTcKDumlg3SM-KgSq-59" target="VndJTcKDumlg3SM-KgSq-66" edge="1">
          <mxGeometry relative="1" as="geometry" />
        </mxCell>
        <mxCell id="VndJTcKDumlg3SM-KgSq-59" value="update" style="rounded=0;whiteSpace=wrap;html=1;" parent="1" vertex="1">
          <mxGeometry x="1180" y="905" width="120" height="60" as="geometry" />
        </mxCell>
        <mxCell id="VndJTcKDumlg3SM-KgSq-60" value="doUpdate" style="rounded=0;whiteSpace=wrap;html=1;dashed=1;dashPattern=1 4;" parent="1" vertex="1">
          <mxGeometry x="760" y="905" width="120" height="60" as="geometry" />
        </mxCell>
        <mxCell id="VndJTcKDumlg3SM-KgSq-65" value="updateProperty" style="rounded=0;whiteSpace=wrap;html=1;dashed=1;dashPattern=1 4;" parent="1" vertex="1">
          <mxGeometry x="1350" y="905" width="120" height="60" as="geometry" />
        </mxCell>
        <mxCell id="VndJTcKDumlg3SM-KgSq-80" style="edgeStyle=orthogonalEdgeStyle;rounded=0;orthogonalLoop=1;jettySize=auto;html=1;exitX=1;exitY=0.5;exitDx=0;exitDy=0;entryX=0;entryY=0.5;entryDx=0;entryDy=0;" parent="1" source="VndJTcKDumlg3SM-KgSq-66" target="VndJTcKDumlg3SM-KgSq-78" edge="1">
          <mxGeometry relative="1" as="geometry" />
        </mxCell>
        <mxCell id="VndJTcKDumlg3SM-KgSq-66" value="updateModel" style="rounded=0;whiteSpace=wrap;html=1;dashed=1;dashPattern=1 4;" parent="1" vertex="1">
          <mxGeometry x="1350" y="990" width="120" height="60" as="geometry" />
        </mxCell>
        <mxCell id="VndJTcKDumlg3SM-KgSq-70" value="initUI" style="rounded=0;whiteSpace=wrap;html=1;" parent="1" vertex="1">
          <mxGeometry x="760" y="690" width="120" height="60" as="geometry" />
        </mxCell>
        <mxCell id="VndJTcKDumlg3SM-KgSq-77" style="edgeStyle=orthogonalEdgeStyle;rounded=0;orthogonalLoop=1;jettySize=auto;html=1;exitX=1;exitY=0.5;exitDx=0;exitDy=0;entryX=0;entryY=0.5;entryDx=0;entryDy=0;" parent="1" source="VndJTcKDumlg3SM-KgSq-73" target="VndJTcKDumlg3SM-KgSq-50" edge="1">
          <mxGeometry relative="1" as="geometry" />
        </mxCell>
        <mxCell id="VndJTcKDumlg3SM-KgSq-73" value="initModel" style="rounded=0;whiteSpace=wrap;html=1;" parent="1" vertex="1">
          <mxGeometry x="1350" y="460" width="120" height="60" as="geometry" />
        </mxCell>
        <mxCell id="VndJTcKDumlg3SM-KgSq-78" value="updateXXX" style="rounded=0;whiteSpace=wrap;html=1;" parent="1" vertex="1">
          <mxGeometry x="1630" y="990" width="120" height="60" as="geometry" />
        </mxCell>
        <mxCell id="VndJTcKDumlg3SM-KgSq-82" value="&lt;font face=&quot;Comic Sans MS&quot;&gt;&lt;span style=&quot;font-size: 19px;&quot;&gt;&lt;b&gt;Mesh&lt;/b&gt;&lt;/span&gt;&lt;/font&gt;&lt;br&gt;&lt;div&gt;&lt;font face=&quot;Comic Sans MS&quot;&gt;&lt;span style=&quot;font-size: 19px;&quot;&gt;&lt;b&gt;&lt;br&gt;&lt;/b&gt;&lt;/span&gt;&lt;/font&gt;&lt;/div&gt;&lt;div&gt;&lt;font face=&quot;Comic Sans MS&quot;&gt;&lt;span style=&quot;font-size: 19px;&quot;&gt;&lt;b&gt;Render Primitive&lt;/b&gt;&lt;/span&gt;&lt;/font&gt;&lt;/div&gt;&lt;div&gt;&lt;font face=&quot;Comic Sans MS&quot;&gt;&lt;span style=&quot;font-size: 19px;&quot;&gt;&lt;b&gt;holding&lt;/b&gt;&lt;/span&gt;&lt;/font&gt;&lt;/div&gt;&lt;div&gt;&lt;font face=&quot;Comic Sans MS&quot;&gt;&lt;span style=&quot;font-size: 19px;&quot;&gt;&lt;b&gt;Vertex buffer&lt;/b&gt;&lt;/span&gt;&lt;/font&gt;&lt;/div&gt;&lt;div&gt;&lt;font face=&quot;Comic Sans MS&quot;&gt;&lt;span style=&quot;font-size: 19px;&quot;&gt;&lt;b&gt;Index buffer&lt;/b&gt;&lt;/span&gt;&lt;/font&gt;&lt;/div&gt;&lt;div&gt;&lt;font face=&quot;Comic Sans MS&quot;&gt;&lt;span style=&quot;font-size: 19px;&quot;&gt;&lt;b&gt;Material&lt;/b&gt;&lt;/span&gt;&lt;/font&gt;&lt;/div&gt;&lt;div&gt;&lt;font face=&quot;Comic Sans MS&quot;&gt;&lt;span style=&quot;font-size: 19px;&quot;&gt;&lt;b&gt;Material buffers&lt;/b&gt;&lt;/span&gt;&lt;/font&gt;&lt;/div&gt;" style="rounded=1;whiteSpace=wrap;html=1;strokeWidth=2;fillWeight=4;hachureGap=8;hachureAngle=45;fillColor=#fff2cc;sketch=1;strokeColor=#d6b656;" parent="1" vertex="1">
          <mxGeometry x="2082" y="150" width="180" height="180" as="geometry" />
        </mxCell>
        <mxCell id="VndJTcKDumlg3SM-KgSq-83" value="render" style="rounded=0;whiteSpace=wrap;html=1;" parent="1" vertex="1">
          <mxGeometry x="1180" y="1070" width="120" height="60" as="geometry" />
        </mxCell>
        <mxCell id="VndJTcKDumlg3SM-KgSq-92" value="init" style="rounded=0;whiteSpace=wrap;html=1;" parent="1" vertex="1">
          <mxGeometry x="2112" y="460" width="120" height="60" as="geometry" />
        </mxCell>
        <mxCell id="7WFM1LRBEUabx5Gw9Pqf-1" value="construct&lt;div&gt;load model async&lt;/div&gt;" style="rounded=0;whiteSpace=wrap;html=1;" vertex="1" parent="1">
          <mxGeometry x="1850" y="460" width="120" height="60" as="geometry" />
        </mxCell>
        <mxCell id="7WFM1LRBEUabx5Gw9Pqf-2" value="" style="endArrow=classic;html=1;rounded=0;entryX=-0.003;entryY=0.503;entryDx=0;entryDy=0;entryPerimeter=0;exitX=0.987;exitY=0.503;exitDx=0;exitDy=0;exitPerimeter=0;dashed=1;dashPattern=8 8;" edge="1" parent="1" source="VndJTcKDumlg3SM-KgSq-50" target="7WFM1LRBEUabx5Gw9Pqf-1">
          <mxGeometry width="50" height="50" relative="1" as="geometry">
            <mxPoint x="1900" y="430" as="sourcePoint" />
            <mxPoint x="1950" y="380" as="targetPoint" />
          </mxGeometry>
        </mxCell>
        <mxCell id="7WFM1LRBEUabx5Gw9Pqf-3" value="updateXXX" style="rounded=0;whiteSpace=wrap;html=1;" vertex="1" parent="1">
          <mxGeometry x="2112" y="990" width="120" height="60" as="geometry" />
        </mxCell>
        <mxCell id="7WFM1LRBEUabx5Gw9Pqf-4" value="" style="endArrow=classic;html=1;rounded=0;exitX=1.003;exitY=0.497;exitDx=0;exitDy=0;exitPerimeter=0;entryX=0.003;entryY=0.497;entryDx=0;entryDy=0;entryPerimeter=0;" edge="1" parent="1" source="VndJTcKDumlg3SM-KgSq-78" target="7WFM1LRBEUabx5Gw9Pqf-3">
          <mxGeometry width="50" height="50" relative="1" as="geometry">
            <mxPoint x="1920" y="1140" as="sourcePoint" />
            <mxPoint x="1970" y="1090" as="targetPoint" />
          </mxGeometry>
        </mxCell>
        <mxCell id="7WFM1LRBEUabx5Gw9Pqf-5" value="render" style="rounded=0;whiteSpace=wrap;html=1;" vertex="1" parent="1">
          <mxGeometry x="1630" y="1070" width="120" height="60" as="geometry" />
        </mxCell>
        <mxCell id="7WFM1LRBEUabx5Gw9Pqf-6" value="render" style="rounded=0;whiteSpace=wrap;html=1;" vertex="1" parent="1">
          <mxGeometry x="2112" y="1070" width="120" height="60" as="geometry" />
        </mxCell>
        <mxCell id="7WFM1LRBEUabx5Gw9Pqf-7" style="edgeStyle=orthogonalEdgeStyle;rounded=0;orthogonalLoop=1;jettySize=auto;html=1;exitX=0.998;exitY=0.491;exitDx=0;exitDy=0;entryX=-0.001;entryY=0.491;entryDx=0;entryDy=0;exitPerimeter=0;entryPerimeter=0;" edge="1" parent="1" source="VndJTcKDumlg3SM-KgSq-83" target="7WFM1LRBEUabx5Gw9Pqf-5">
          <mxGeometry relative="1" as="geometry">
            <mxPoint x="1340" y="1099.47" as="sourcePoint" />
            <mxPoint x="1463" y="1099.47" as="targetPoint" />
          </mxGeometry>
        </mxCell>
        <mxCell id="7WFM1LRBEUabx5Gw9Pqf-8" value="" style="endArrow=classic;html=1;rounded=0;exitX=1.002;exitY=0.491;exitDx=0;exitDy=0;exitPerimeter=0;entryX=-0.004;entryY=0.505;entryDx=0;entryDy=0;entryPerimeter=0;" edge="1" parent="1" source="7WFM1LRBEUabx5Gw9Pqf-5" target="7WFM1LRBEUabx5Gw9Pqf-6">
          <mxGeometry width="50" height="50" relative="1" as="geometry">
            <mxPoint x="1840" y="1150" as="sourcePoint" />
            <mxPoint x="1890" y="1100" as="targetPoint" />
          </mxGeometry>
        </mxCell>
      </root>
    </mxGraphModel>
  </diagram>
</mxfile>
